<svg width="20" height="20" viewBox="0 0 20 20" fill="none" xmlns="http://www.w3.org/2000/svg">
<path opacity="0.5" d="M18.3337 8.33332H1.66699V15.8333C1.66699 16.4964 1.93038 17.1322 2.39923 17.6011C2.86807 18.0699 3.50395 18.3333 4.16699 18.3333H15.8337C16.4967 18.3333 17.1326 18.0699 17.6014 17.6011C18.0703 17.1322 18.3337 16.4964 18.3337 15.8333V8.33332ZM5.83366 6.66666C5.61264 6.66666 5.40068 6.57886 5.2444 6.42258C5.08812 6.2663 5.00033 6.05434 5.00033 5.83332V2.49999C5.00033 2.27898 5.08812 2.06701 5.2444 1.91073C5.40068 1.75445 5.61264 1.66666 5.83366 1.66666C6.05467 1.66666 6.26663 1.75445 6.42291 1.91073C6.57919 2.06701 6.66699 2.27898 6.66699 2.49999V5.83332C6.66699 6.05434 6.57919 6.2663 6.42291 6.42258C6.26663 6.57886 6.05467 6.66666 5.83366 6.66666ZM14.167 6.66666C13.946 6.66666 13.734 6.57886 13.5777 6.42258C13.4215 6.2663 13.3337 6.05434 13.3337 5.83332V2.49999C13.3337 2.27898 13.4215 2.06701 13.5777 1.91073C13.734 1.75445 13.946 1.66666 14.167 1.66666C14.388 1.66666 14.6 1.75445 14.7562 1.91073C14.9125 2.06701 15.0003 2.27898 15.0003 2.49999V5.83332C15.0003 6.05434 14.9125 6.2663 14.7562 6.42258C14.6 6.57886 14.388 6.66666 14.167 6.66666Z" fill="#8E98A8"/>
<path d="M15.8337 3.33334H15.0003V5.83334C15.0003 6.05436 14.9125 6.26632 14.7562 6.4226C14.6 6.57888 14.388 6.66668 14.167 6.66668C13.946 6.66668 13.734 6.57888 13.5777 6.4226C13.4215 6.26632 13.3337 6.05436 13.3337 5.83334V3.33334H6.66699V5.83334C6.66699 6.05436 6.57919 6.26632 6.42291 6.4226C6.26663 6.57888 6.05467 6.66668 5.83366 6.66668C5.61264 6.66668 5.40068 6.57888 5.2444 6.4226C5.08812 6.26632 5.00033 6.05436 5.00033 5.83334V3.33334H4.16699C3.50395 3.33334 2.86807 3.59674 2.39923 4.06558C1.93038 4.53442 1.66699 5.1703 1.66699 5.83334V8.33334H18.3337V5.83334C18.3337 5.1703 18.0703 4.53442 17.6014 4.06558C17.1326 3.59674 16.4967 3.33334 15.8337 3.33334Z" fill="#8E98A8"/>
</svg>
