<svg width="11" height="11" viewBox="0 0 11 11" fill="none" xmlns="http://www.w3.org/2000/svg">
<path d="M5.5 0.21875C2.58338 0.21875 0.21875 2.58338 0.21875 5.5C0.21875 8.41662 2.58338 10.7812 5.5 10.7812C8.41662 10.7812 10.7812 8.41662 10.7812 5.5C10.7812 2.58338 8.41662 0.21875 5.5 0.21875ZM7.9375 6.3125H5.5C5.39226 6.3125 5.28892 6.2697 5.21274 6.19351C5.13655 6.11733 5.09375 6.01399 5.09375 5.90625V2.25C5.09375 2.14226 5.13655 2.03892 5.21274 1.96274C5.28892 1.88655 5.39226 1.84375 5.5 1.84375C5.60774 1.84375 5.71108 1.88655 5.78726 1.96274C5.86345 2.03892 5.90625 2.14226 5.90625 2.25V5.5H7.9375C8.04524 5.5 8.14858 5.5428 8.22476 5.61899C8.30095 5.69517 8.34375 5.79851 8.34375 5.90625C8.34375 6.01399 8.30095 6.11733 8.22476 6.19351C8.14858 6.2697 8.04524 6.3125 7.9375 6.3125Z" fill="white"/>
</svg>
