<svg width="28" height="28" viewBox="0 0 28 28" fill="none" xmlns="http://www.w3.org/2000/svg">
<path d="M14.4244 0.220861C14.2577 0.0783255 14.0457 0 13.8264 0C13.6071 0 13.395 0.0783255 13.2284 0.220861L0.0263672 11.5369V24.8401C0.0263672 25.5721 0.317152 26.2741 0.834752 26.7917C1.35235 27.3093 2.05437 27.6001 2.78637 27.6001H10.1464C10.3904 27.6001 10.6244 27.5031 10.7969 27.3306C10.9694 27.1581 11.0664 26.9241 11.0664 26.6801V21.1601C11.0664 20.4281 11.3572 19.726 11.8748 19.2084C12.3924 18.6908 13.0944 18.4001 13.8264 18.4001C14.5584 18.4001 15.2604 18.6908 15.778 19.2084C16.2956 19.726 16.5864 20.4281 16.5864 21.1601V26.6801C16.5864 26.9241 16.6833 27.1581 16.8558 27.3306C17.0284 27.5031 17.2624 27.6001 17.5064 27.6001H24.8664C25.5984 27.6001 26.3004 27.3093 26.818 26.7917C27.3356 26.2741 27.6264 25.5721 27.6264 24.8401V11.5369L14.4244 0.220861Z" fill="#0368FB"/>
</svg>
