<svg width="29" height="28" viewBox="0 0 29 28" fill="none" xmlns="http://www.w3.org/2000/svg">
<path d="M14.467 0.199463C22.0887 0.199463 28.267 6.37772 28.267 13.9995C28.267 21.6212 22.0887 27.7995 14.467 27.7995H3.42699C2.69499 27.7995 1.99298 27.5087 1.47538 26.9911C0.957777 26.4735 0.666992 25.7715 0.666992 25.0395V13.9995C0.666992 6.37772 6.84525 0.199463 14.467 0.199463ZM14.467 16.7595H10.327C9.96099 16.7595 9.60999 16.9049 9.35118 17.1637C9.09238 17.4225 8.94699 17.7735 8.94699 18.1395C8.94699 18.5055 9.09238 18.8565 9.35118 19.1153C9.60999 19.3741 9.96099 19.5195 10.327 19.5195H14.467C14.833 19.5195 15.184 19.3741 15.4428 19.1153C15.7016 18.8565 15.847 18.5055 15.847 18.1395C15.847 17.7735 15.7016 17.4225 15.4428 17.1637C15.184 16.9049 14.833 16.7595 14.467 16.7595ZM18.607 11.2395H10.327C9.97526 11.2399 9.63695 11.3745 9.38118 11.616C9.12542 11.8575 8.97151 12.1875 8.95089 12.5386C8.93028 12.8897 9.04452 13.2355 9.27028 13.5052C9.49603 13.7749 9.81626 13.9483 10.1655 13.9898L10.327 13.9995H18.607C18.9587 13.9991 19.297 13.8644 19.5528 13.6229C19.8086 13.3815 19.9625 13.0515 19.9831 12.7003C20.0037 12.3492 19.8895 12.0035 19.6637 11.7337C19.438 11.464 19.1177 11.2907 18.7685 11.2491L18.607 11.2395Z" fill="#0368FB"/>
</svg>
