<svg width="29" height="28" viewBox="0 0 29 28" xmlns="http://www.w3.org/2000/svg">
<path d="M14.8967 0.399658C22.5184 0.399658 28.6967 6.57792 28.6967 14.1997C28.6967 21.8214 22.5184 27.9997 14.8967 27.9997H3.85668C3.12468 27.9997 2.42267 27.7089 1.90506 27.1913C1.38746 26.6737 1.09668 25.9717 1.09668 25.2397V14.1997C1.09668 6.57792 7.27494 0.399658 14.8967 0.399658ZM14.8967 3.15966C11.9687 3.15966 9.16062 4.3228 7.09022 6.3932C5.01982 8.4636 3.85668 11.2717 3.85668 14.1997V25.2397H14.8967C17.8247 25.2397 20.6327 24.0765 22.7031 22.0061C24.7735 19.9357 25.9367 17.1276 25.9367 14.1997C25.9367 11.2717 24.7735 8.4636 22.7031 6.3932C20.6327 4.3228 17.8247 3.15966 14.8967 3.15966ZM14.8967 16.9597C15.2484 16.96 15.5867 17.0947 15.8425 17.3362C16.0983 17.5776 16.2522 17.9077 16.2728 18.2588C16.2934 18.6099 16.1791 18.9557 15.9534 19.2254C15.7276 19.4951 15.4074 19.6685 15.0581 19.71L14.8967 19.7197H10.7567C10.4049 19.7193 10.0666 19.5846 9.81087 19.3431C9.55511 19.1017 9.40119 18.7717 9.38058 18.4205C9.35997 18.0694 9.47421 17.7237 9.69996 17.4539C9.92572 17.1842 10.2459 17.0109 10.5952 16.9693L10.7567 16.9597H14.8967ZM19.0367 11.4397C19.4027 11.4397 19.7537 11.5851 20.0125 11.8439C20.2713 12.1027 20.4167 12.4537 20.4167 12.8197C20.4167 13.1857 20.2713 13.5367 20.0125 13.7955C19.7537 14.0543 19.4027 14.1997 19.0367 14.1997H10.7567C10.3907 14.1997 10.0397 14.0543 9.78087 13.7955C9.52207 13.5367 9.37668 13.1857 9.37668 12.8197C9.37668 12.4537 9.52207 12.1027 9.78087 11.8439C10.0397 11.5851 10.3907 11.4397 10.7567 11.4397H19.0367Z" fill="#8E9FAF"/>
</svg>
