<svg width="28" height="29" viewBox="0 0 28 29" fill="none" xmlns="http://www.w3.org/2000/svg">
<path d="M11.3865 24.6752L10.947 26.1205C5.28629 25.6197 1.97656 21.758 1.97656 17.9965V16.9743C1.97656 16.161 2.29963 15.3811 2.87471 14.806C3.44978 14.2309 4.22974 13.9079 5.04302 13.9079H14.3242C13.5269 14.47 12.8257 15.161 12.2553 15.9522H5.04302C4.77193 15.9522 4.51194 16.0598 4.32025 16.2515C4.12856 16.4432 4.02087 16.7032 4.02087 16.9743V17.9965C4.02087 20.7317 6.55785 23.6898 11.1432 24.0844C11.2168 24.2847 11.2986 24.481 11.3865 24.6752ZM12.1981 0.619873C13.6891 0.619873 15.119 1.21217 16.1733 2.26647C17.2276 3.32077 17.8199 4.75071 17.8199 6.24171C17.8199 7.73271 17.2276 9.16265 16.1733 10.217C15.119 11.2712 13.6891 11.8635 12.1981 11.8635C10.7071 11.8635 9.27714 11.2712 8.22285 10.217C7.16855 9.16265 6.57625 7.73271 6.57625 6.24171C6.57625 4.75071 7.16855 3.32077 8.22285 2.26647C9.27714 1.21217 10.7071 0.619873 12.1981 0.619873ZM12.1981 2.66418C11.2493 2.66418 10.3393 3.0411 9.66839 3.71201C8.99747 4.38293 8.62055 5.29289 8.62055 6.24171C8.62055 7.19053 8.99747 8.10049 9.66839 8.77141C10.3393 9.44233 11.2493 9.81924 12.1981 9.81924C13.1469 9.81924 14.0569 9.44233 14.7278 8.77141C15.3987 8.10049 15.7756 7.19053 15.7756 6.24171C15.7756 5.29289 15.3987 4.38293 14.7278 3.71201C14.0569 3.0411 13.1469 2.66418 12.1981 2.66418ZM26.5082 21.0629C26.5085 22.3085 26.1837 23.5326 25.5658 24.6141C24.9479 25.6957 24.0584 26.5971 22.9853 27.2294C21.9121 27.8617 20.6925 28.2029 19.447 28.2193C18.2015 28.2356 16.9733 27.9265 15.884 27.3226L13.0383 28.1873C12.9255 28.2218 12.8055 28.2249 12.6911 28.1963C12.5767 28.1678 12.4722 28.1086 12.3888 28.0252C12.3054 27.9419 12.2463 27.8374 12.2177 27.723C12.1892 27.6085 12.1923 27.4885 12.2267 27.3757L13.0935 24.5321C12.5646 23.5768 12.2613 22.5131 12.207 21.4226C12.1526 20.332 12.3486 19.2434 12.7798 18.2403C13.2111 17.2371 13.8663 16.346 14.6951 15.6351C15.524 14.9243 16.5046 14.4125 17.5617 14.1392C18.6189 13.8658 19.7246 13.838 20.7941 14.0579C21.8637 14.2778 22.8687 14.7396 23.7323 15.4079C24.5958 16.0762 25.2949 16.9332 25.7761 17.9134C26.2573 18.8937 26.5077 19.971 26.5082 21.0629ZM17.3088 17.9965C17.0378 17.9965 16.7778 18.1042 16.5861 18.2958C16.3944 18.4875 16.2867 18.7475 16.2867 19.0186C16.2867 19.2897 16.3944 19.5497 16.5861 19.7414C16.7778 19.9331 17.0378 20.0408 17.3088 20.0408H21.3975C21.6685 20.0408 21.9285 19.9331 22.1202 19.7414C22.3119 19.5497 22.4196 19.2897 22.4196 19.0186C22.4196 18.7475 22.3119 18.4875 22.1202 18.2958C21.9285 18.1042 21.6685 17.9965 21.3975 17.9965H17.3088ZM16.2867 23.1072C16.2867 23.3783 16.3944 23.6383 16.5861 23.83C16.7778 24.0217 17.0378 24.1294 17.3088 24.1294H19.3532C19.6242 24.1294 19.8842 24.0217 20.0759 23.83C20.2676 23.6383 20.3753 23.3783 20.3753 23.1072C20.3753 22.8361 20.2676 22.5761 20.0759 22.3845C19.8842 22.1928 19.6242 22.0851 19.3532 22.0851H17.3088C17.0378 22.0851 16.7778 22.1928 16.5861 22.3845C16.3944 22.5761 16.2867 22.8361 16.2867 23.1072Z" fill="#8E9FAF"/>
</svg>
