<svg width="34" height="34" viewBox="0 0 34 34" fill="none" xmlns="http://www.w3.org/2000/svg">
<path d="M13.6 23.8018L22.423 18.1613L13.6 12.5207V23.8018ZM33.252 9.08C33.473 9.96369 33.626 11.1482 33.728 12.6523C33.847 14.1565 33.898 15.4538 33.898 16.5819L34 18.1613C34 22.2789 33.728 25.306 33.252 27.2426C32.827 28.9347 31.841 30.0253 30.311 30.4953C29.512 30.7397 28.05 30.9089 25.806 31.0218C23.596 31.1534 21.573 31.2098 19.703 31.2098L17 31.3226C9.877 31.3226 5.44 31.0217 3.689 30.4953C2.159 30.0253 1.173 28.9347 0.748 27.2426C0.527 26.3589 0.374 25.1744 0.272 23.6702C0.153 22.1661 0.102 20.8688 0.102 19.7406L0 18.1613C0 14.0437 0.272 11.0166 0.748 9.08C1.173 7.38783 2.159 6.29733 3.689 5.82728C4.488 5.58286 5.95 5.41364 8.194 5.30083C10.404 5.16922 12.427 5.11281 14.297 5.11281L17 5C24.123 5 28.56 5.30083 30.311 5.82728C31.841 6.29733 32.827 7.38783 33.252 9.08Z" fill="#0368FB"/>
</svg>
