<svg width="35" height="26" viewBox="0 0 35 26" fill="none" xmlns="http://www.w3.org/2000/svg">
<path d="M34.457 12.5127C34.457 12.4286 34.457 12.333 34.4532 12.2221C34.4495 11.9125 34.4419 11.5646 34.4343 11.1938C34.404 10.1273 34.3509 9.06458 34.2675 8.06303C34.1538 6.68303 33.987 5.53239 33.7596 4.66846C33.5196 3.76687 33.0492 2.9446 32.3954 2.28384C31.7416 1.62307 30.9272 1.14696 30.0338 0.903086C28.9611 0.61256 26.8613 0.432892 23.9049 0.322034C22.4987 0.268516 20.9939 0.234111 19.4892 0.214998C18.9624 0.207352 18.4734 0.20353 18.0337 0.199707H16.9194C16.4797 0.20353 15.9908 0.207352 15.4639 0.214998C13.9592 0.234111 12.4544 0.268516 11.0482 0.322034C8.09182 0.436715 5.98821 0.616383 4.91935 0.903086C4.02561 1.14636 3.21096 1.62227 2.55704 2.28313C1.90312 2.94399 1.4329 3.76658 1.19351 4.66846C0.962299 5.53239 0.799316 6.68303 0.685608 8.06303C0.602222 9.06458 0.549158 10.1273 0.518835 11.1938C0.507465 11.5646 0.503674 11.9125 0.499884 12.2221C0.499884 12.333 0.496094 12.4286 0.496094 12.5127V12.7267C0.496094 12.8108 0.496094 12.9064 0.499884 13.0173C0.503674 13.3269 0.511255 13.6748 0.518835 14.0456C0.549158 15.1121 0.602222 16.1748 0.685608 17.1764C0.799316 18.5564 0.966089 19.707 1.19351 20.571C1.67866 22.402 3.10381 23.847 4.91935 24.3363C5.98821 24.6269 8.09182 24.8065 11.0482 24.9174C12.4544 24.9709 13.9592 25.0053 15.4639 25.0244C15.9908 25.0321 16.4797 25.0359 16.9194 25.0397H18.0337C18.4734 25.0359 18.9624 25.0321 19.4892 25.0244C20.9939 25.0053 22.4987 24.9709 23.9049 24.9174C26.8613 24.8027 28.9649 24.623 30.0338 24.3363C31.8493 23.847 33.2745 22.4059 33.7596 20.571C33.9908 19.707 34.1538 18.5564 34.2675 17.1764C34.3509 16.1748 34.404 15.1121 34.4343 14.0456C34.4457 13.6748 34.4495 13.3269 34.4532 13.0173C34.4532 12.9064 34.457 12.8108 34.457 12.7267V12.5127ZM31.728 12.7115C31.728 12.7917 31.728 12.8797 31.7242 12.9829C31.7204 13.281 31.7129 13.6098 31.7053 13.9653C31.6788 14.9821 31.6257 15.999 31.5461 16.9432C31.4438 18.1741 31.2997 19.1833 31.1216 19.8599C30.8866 20.743 30.1968 21.4425 29.325 21.6757C28.529 21.8898 26.524 22.0618 23.7988 22.165C22.4191 22.2185 20.9333 22.2529 19.4513 22.2721C18.932 22.2797 18.4507 22.2835 18.0186 22.2835H16.9346L15.5018 22.2721C14.0198 22.2529 12.5378 22.2185 11.1544 22.165C8.42916 22.058 6.42031 21.8898 5.62814 21.6757C4.75637 21.4387 4.06654 20.743 3.83154 19.8599C3.6534 19.1833 3.50937 18.1741 3.40703 16.9432C3.32744 15.999 3.27816 14.9821 3.24784 13.9653C3.23647 13.6098 3.23268 13.2772 3.22889 12.9829C3.22889 12.8797 3.2251 12.7879 3.2251 12.7115V12.528C3.2251 12.4477 3.2251 12.3598 3.22889 12.2565C3.23268 11.9584 3.24026 11.6296 3.24784 11.2741C3.27437 10.2573 3.32744 9.24043 3.40703 8.29622C3.50937 7.0653 3.6534 6.05611 3.83154 5.37949C4.06654 4.49644 4.75637 3.79688 5.62814 3.5637C6.4241 3.34962 8.42916 3.1776 11.1544 3.07439C12.534 3.02087 14.0198 2.98647 15.5018 2.96735C16.0211 2.95971 16.5025 2.95588 16.9346 2.95588H18.0186L19.4513 2.96735C20.9333 2.98647 22.4153 3.02087 23.7988 3.07439C26.524 3.18142 28.5328 3.34962 29.325 3.5637C30.1968 3.8007 30.8866 4.49644 31.1216 5.37949C31.2997 6.05611 31.4438 7.0653 31.5461 8.29622C31.6257 9.24043 31.675 10.2573 31.7053 11.2741C31.7167 11.6296 31.7204 11.9622 31.7242 12.2565C31.7242 12.3598 31.728 12.4515 31.728 12.528V12.7115ZM14.1032 17.7421L22.8967 12.5815L14.1032 7.49727V17.7421Z" fill="#8E9FAF"/>
</svg>
