<svg width="12" height="13" viewBox="0 0 12 13" fill="none" xmlns="http://www.w3.org/2000/svg">
<path d="M6.22658 7.90247L9.70308 11.3889C9.97933 11.6658 10.4043 11.6439 10.614 11.3138C11.2596 10.2935 11.6018 9.11061 11.6007 7.90318C11.6019 6.45354 11.1092 5.04674 10.2039 3.91455L6.22658 7.90247ZM4.375 8.19714V2.98735C3.19411 3.15898 2.11457 3.75027 1.33407 4.65292C0.553564 5.55557 0.124341 6.70917 0.125001 7.90247C0.125001 10.648 2.34492 12.875 5.08333 12.875C6.15347 12.875 7.19443 12.5261 8.04842 11.8812L4.375 8.19714ZM9.56779 2.40085C9.84404 2.12389 9.82633 1.69322 9.50475 1.4708C8.60122 0.84496 7.57473 0.418766 6.49363 0.220596C6.10829 0.149762 5.79167 0.441596 5.79167 0.833304V6.1883L9.56779 2.40085Z" fill="white"/>
</svg>
