<svg width="31" height="30" viewBox="0 0 31 30" fill="none" xmlns="http://www.w3.org/2000/svg">
<path d="M19.4647 8.75002L11.2322 16.9825C10.9934 17.2131 10.8029 17.489 10.6719 17.794C10.5409 18.099 10.4719 18.4271 10.469 18.759C10.4661 19.091 10.5294 19.4202 10.6551 19.7274C10.7808 20.0346 10.9664 20.3138 11.2012 20.5485C11.4359 20.7832 11.715 20.9689 12.0223 21.0946C12.3295 21.2203 12.6587 21.2835 12.9907 21.2806C13.3226 21.2778 13.6507 21.2088 13.9557 21.0778C14.2607 20.9468 14.5365 20.7563 14.7672 20.5175L22.7847 12.285C23.6954 11.342 24.1994 10.079 24.188 8.76802C24.1766 7.45703 23.6508 6.20297 22.7238 5.27593C21.7967 4.34889 20.5426 3.82304 19.2317 3.81165C17.9207 3.80026 16.6577 4.30423 15.7147 5.21502L7.69591 13.4463C6.28927 14.8529 5.49902 16.7607 5.49902 18.75C5.49902 20.7393 6.28927 22.6471 7.69591 24.0538C9.10255 25.4604 11.0104 26.2507 12.9997 26.2507C14.989 26.2507 16.8968 25.4604 18.3034 24.0538L26.1247 16.25" stroke="black" stroke-opacity="0.6" stroke-width="2.5" stroke-linecap="round" stroke-linejoin="round"/>
</svg>
