<svg width="21" height="20" viewBox="0 0 21 20" fill="none" xmlns="http://www.w3.org/2000/svg">
<g id="Icons / Send">
<path id="Vector" d="M7.16649 9.99998L5.11159 16.0613C5.08114 16.1419 5.07486 16.2294 5.09351 16.3134C5.11215 16.3974 5.15493 16.4743 5.21676 16.5351C5.2786 16.5959 5.35688 16.638 5.44231 16.6563C5.52775 16.6747 5.61674 16.6685 5.69871 16.6385L16.7497 10.8333L16.9213 10.7432L17.0928 10.653L17.2644 10.5629C17.2644 10.5629 17.583 10.4166 17.583 9.99998C17.583 9.58331 17.2644 9.43705 17.2644 9.43705L17.0928 9.34691L16.9213 9.25678L16.7497 9.16665L5.69871 3.36142C5.61674 3.33148 5.52775 3.32531 5.44231 3.34364C5.35688 3.36197 5.2786 3.40403 5.21676 3.46482C5.15493 3.52562 5.11215 3.60259 5.09351 3.68659C5.07486 3.77059 5.08114 3.85809 5.11159 3.93869L7.16649 9.99998ZM7.16649 9.99998H11.333" stroke="#FAFAFA" stroke-width="2.1" stroke-linecap="round" stroke-linejoin="round"/>
</g>
</svg>
